<svg width="28" height="28" viewBox="0 0 28 28" fill="none" xmlns="http://www.w3.org/2000/svg">
<path d="M11.6667 5.83333C11.6667 5.21449 11.9126 4.621 12.3502 4.18342C12.7878 3.74583 13.3812 3.5 14.0001 3.5C14.6189 3.5 15.2124 3.74583 15.65 4.18342C16.0876 4.621 16.3334 5.21449 16.3334 5.83333C17.6732 6.46687 18.8154 7.45305 19.6375 8.68618C20.4596 9.91932 20.9306 11.3529 21.0001 12.8333V16.3333C21.0879 17.0587 21.3448 17.7532 21.75 18.3611C22.1553 18.9691 22.6977 19.4733 23.3334 19.8333H4.66675C5.30251 19.4733 5.84486 18.9691 6.25013 18.3611C6.65541 17.7532 6.91228 17.0587 7.00008 16.3333V12.8333C7.06957 11.3529 7.5406 9.91932 8.36269 8.68618C9.18478 7.45305 10.3269 6.46687 11.6667 5.83333Z" stroke="#414141" stroke-linecap="round" stroke-linejoin="round"/>
<path d="M10 20V21.1667C10 22.0949 10.3687 22.9852 11.0251 23.6415C11.6815 24.2979 12.5717 24.6667 13.5 24.6667C14.4283 24.6667 15.3185 24.2979 15.9749 23.6415C16.6313 22.9852 17 22.0949 17 21.1667V20" stroke="#414141" stroke-linecap="round" stroke-linejoin="round"/>
</svg>
