<svg width="46" height="46" viewBox="0 0 46 46" fill="none" xmlns="http://www.w3.org/2000/svg">
<path d="M26.833 32.5837V13.417L15.333 23.0003L26.833 32.5837Z" fill="black"/>
<path d="M22.9997 3.83301C12.4312 3.83301 3.83301 12.4312 3.83301 22.9997C3.83301 33.5682 12.4312 42.1663 22.9997 42.1663C33.5682 42.1663 42.1663 33.5682 42.1663 22.9997C42.1663 12.4312 33.5682 3.83301 22.9997 3.83301ZM22.9997 38.333C14.5453 38.333 7.66634 31.4541 7.66634 22.9997C7.66634 14.5453 14.5453 7.66634 22.9997 7.66634C31.4541 7.66634 38.333 14.5453 38.333 22.9997C38.333 31.4541 31.4541 38.333 22.9997 38.333Z" fill="black"/>
</svg>
