<svg width="46" height="47" viewBox="0 0 46 47" fill="none" xmlns="http://www.w3.org/2000/svg">
<path d="M26.8286 33.0807V13.9141L15.3286 23.4974L26.8286 33.0807Z" fill="black"/>
<path d="M22.9953 4.33008C12.4268 4.33008 3.82861 12.9282 3.82861 23.4967C3.82861 34.0652 12.4268 42.6634 22.9953 42.6634C33.5638 42.6634 42.1619 34.0652 42.1619 23.4967C42.1619 12.9282 33.5638 4.33008 22.9953 4.33008ZM22.9953 38.8301C14.5409 38.8301 7.66195 31.9512 7.66195 23.4967C7.66195 15.0423 14.5409 8.16341 22.9953 8.16341C31.4497 8.16341 38.3286 15.0423 38.3286 23.4967C38.3286 31.9512 31.4497 38.8301 22.9953 38.8301Z" fill="black"/>
</svg>
