<svg xmlns="http://www.w3.org/2000/svg" width="19" height="20" viewBox="0 0 19 20" fill="none">
  <path d="M5.2409 6.43522C4.9386 6.13292 4.44847 6.13292 4.14616 6.43522C3.84386 6.73753 3.84386 7.22766 4.14616 7.52997L8.61636 12.0002L4.14621 16.4703C3.8439 16.7726 3.8439 17.2628 4.14621 17.5651C4.44851 17.8673 4.93864 17.8673 5.24094 17.5651L9.71109 13.0949L14.1813 17.5651C14.4836 17.8673 14.9737 17.8673 15.276 17.5651C15.5783 17.2628 15.5783 16.7726 15.276 16.4703L10.8058 12.0002L15.2761 7.52997C15.5784 7.22766 15.5784 6.73753 15.2761 6.43522C14.9738 6.13292 14.4836 6.13292 14.1813 6.43522L9.71109 10.9054L5.2409 6.43522Z" fill="#414141"/>
</svg>