<svg width="14" height="16" viewBox="0 0 14 16" fill="none" xmlns="http://www.w3.org/2000/svg">
<path d="M4.795 12.1333C4.83558 12.1755 4.88377 12.2091 4.93682 12.232C4.98987 12.2548 5.04674 12.2666 5.10417 12.2666C5.16159 12.2666 5.21846 12.2548 5.27151 12.232C5.32456 12.2091 5.37275 12.1755 5.41333 12.1333L9.05917 8.34162C9.0998 8.29941 9.13204 8.24929 9.15404 8.19412C9.17603 8.13895 9.18736 8.07981 9.18736 8.02008C9.18736 7.96036 9.17603 7.90122 9.15404 7.84605C9.13204 7.79087 9.0998 7.74075 9.05917 7.69855L5.41333 3.90688C5.37273 3.86466 5.32453 3.83117 5.27148 3.80831C5.21844 3.78546 5.16158 3.7737 5.10417 3.7737C5.04675 3.7737 4.98989 3.78546 4.93685 3.80831C4.8838 3.83117 4.8356 3.86466 4.795 3.90688C4.7544 3.94911 4.72219 3.99924 4.70022 4.0544C4.67825 4.10957 4.66694 4.1687 4.66694 4.22842C4.66694 4.28813 4.67825 4.34726 4.70022 4.40243C4.72219 4.4576 4.7544 4.50773 4.795 4.54995L8.13108 8.02008L4.795 11.4902C4.75436 11.5324 4.72212 11.5825 4.70013 11.6377C4.67813 11.6929 4.66681 11.752 4.66681 11.8118C4.66681 11.8715 4.67813 11.9306 4.70013 11.9858C4.72212 12.041 4.75436 12.0911 4.795 12.1333Z" fill="currentColor"/>
</svg>
