<svg width="14" height="14" viewBox="0 0 14 14" fill="none" xmlns="http://www.w3.org/2000/svg">
<path d="M1.75 3.5H2.91667H12.25" stroke="currentColor" stroke-linecap="round" stroke-linejoin="round"/>
<path d="M11.0834 3.49984V11.6665C11.0834 11.9759 10.9605 12.2727 10.7417 12.4915C10.5229 12.7103 10.2262 12.8332 9.91675 12.8332H4.08341C3.774 12.8332 3.47725 12.7103 3.25846 12.4915C3.03966 12.2727 2.91675 11.9759 2.91675 11.6665V3.49984M4.66675 3.49984V2.33317C4.66675 2.02375 4.78966 1.72701 5.00846 1.50821C5.22725 1.28942 5.524 1.1665 5.83341 1.1665H8.16675C8.47617 1.1665 8.77291 1.28942 8.99171 1.50821C9.2105 1.72701 9.33342 2.02375 9.33342 2.33317V3.49984" stroke="currentColor" stroke-linecap="round" stroke-linejoin="round"/>
</svg>
