<svg width="17" height="17" viewBox="0 0 17 17" fill="none" xmlns="http://www.w3.org/2000/svg">
<path d="M1.41666 2.65627C1.41666 1.97202 1.97199 1.41669 2.65624 1.41669H14.3437C15.028 1.41669 15.5833 1.97202 15.5833 2.65627V14.3438C15.5833 14.6725 15.4527 14.9878 15.2203 15.2203C14.9878 15.4528 14.6725 15.5834 14.3437 15.5834H6.90624C6.76534 15.5834 6.63022 15.5274 6.53059 15.4278C6.43096 15.3281 6.37499 15.193 6.37499 15.0521C6.37499 14.9112 6.43096 14.7761 6.53059 14.6765C6.63022 14.5768 6.76534 14.5209 6.90624 14.5209H14.3437C14.3907 14.5209 14.4357 14.5022 14.469 14.469C14.5022 14.4358 14.5208 14.3907 14.5208 14.3438V6.37502H2.47916V8.50002C2.47916 8.64092 2.42319 8.77604 2.32356 8.87567C2.22393 8.9753 2.0888 9.03127 1.94791 9.03127C1.80701 9.03127 1.67188 8.9753 1.57226 8.87567C1.47263 8.77604 1.41666 8.64092 1.41666 8.50002V2.65627ZM6.37499 5.31252H14.5208V2.65627C14.5208 2.60931 14.5022 2.56426 14.469 2.53105C14.4357 2.49784 14.3907 2.47919 14.3437 2.47919H6.37499V5.31252ZM2.47916 5.31252H5.31249V2.47919H2.65624C2.60927 2.47919 2.56423 2.49784 2.53102 2.53105C2.49781 2.56426 2.47916 2.60931 2.47916 2.65627V5.31252Z" fill="currentColor"/>
<path d="M6.59316 10.2708L5.10282 8.68701C5.05351 8.63651 5.01476 8.57669 4.98882 8.51105C4.96289 8.4454 4.9503 8.37525 4.95178 8.30468C4.95327 8.23412 4.9688 8.16455 4.99747 8.10006C5.02614 8.03556 5.06738 7.97742 5.11877 7.92904C5.17016 7.88066 5.23068 7.84301 5.29679 7.81828C5.3629 7.79355 5.43327 7.78224 5.5038 7.78502C5.57433 7.78779 5.6436 7.80459 5.70756 7.83444C5.77152 7.86429 5.82889 7.90658 5.87632 7.95885L8.20957 10.438C8.30231 10.5366 8.35395 10.6668 8.35395 10.8021C8.35395 10.9374 8.30231 11.0676 8.20957 11.1662L5.87632 13.6453C5.82889 13.6976 5.77152 13.7399 5.70756 13.7698C5.6436 13.7996 5.57433 13.8164 5.5038 13.8192C5.43327 13.8219 5.3629 13.8106 5.29679 13.7859C5.23068 13.7612 5.17016 13.7235 5.11877 13.6751C5.06738 13.6268 5.02614 13.5686 4.99747 13.5041C4.9688 13.4396 4.95327 13.3701 4.95178 13.2995C4.9503 13.2289 4.96289 13.1588 4.98882 13.0931C5.01476 13.0275 5.05351 12.9677 5.10282 12.9172L6.59316 11.3333H4.31374C3.82718 11.3333 3.36054 11.5266 3.01649 11.8707C2.67244 12.2147 2.47916 12.6814 2.47916 13.1679V15.0521C2.47916 15.193 2.42319 15.3281 2.32356 15.4277C2.22393 15.5274 2.0888 15.5833 1.94791 15.5833C1.80701 15.5833 1.67188 15.5274 1.57226 15.4277C1.47263 15.3281 1.41666 15.193 1.41666 15.0521V13.1679C1.41666 12.3996 1.72188 11.6627 2.26519 11.1194C2.8085 10.5761 3.54539 10.2708 4.31374 10.2708H6.59316Z" fill="currentColor"/>
</svg>
