<svg width="17" height="17" viewBox="0 0 17 17" fill="none" xmlns="http://www.w3.org/2000/svg">
<path d="M7.08325 5.66667V4.25C7.08325 3.87428 7.23251 3.51394 7.49818 3.24827C7.76386 2.98259 8.1242 2.83334 8.49992 2.83334H13.4583C13.834 2.83334 14.1943 2.98259 14.46 3.24827C14.7257 3.51394 14.8749 3.87428 14.8749 4.25V12.75C14.8749 13.1257 14.7257 13.4861 14.46 13.7517C14.1943 14.0174 13.834 14.1667 13.4583 14.1667H8.49992C8.1242 14.1667 7.76386 14.0174 7.49818 13.7517C7.23251 13.4861 7.08325 13.1257 7.08325 12.75V11.3333" stroke="currentColor" stroke-linecap="round" stroke-linejoin="round"/>
<path d="M10.625 8.5H2.125L4.25 6.375" stroke="currentColor" stroke-linecap="round" stroke-linejoin="round"/>
<path d="M4.25 10.625L2.125 8.5" stroke="currentColor" stroke-linecap="round" stroke-linejoin="round"/>
</svg>
