<svg width="16" height="16" viewBox="0 0 16 16" fill="currentColor" xmlns="http://www.w3.org/2000/svg">
<path d="M5.33329 4.00008C5.33329 4.73646 4.73634 5.33341 3.99996 5.33341C3.26358 5.33341 2.66663 4.73646 2.66663 4.00008C2.66663 3.2637 3.26358 2.66675 3.99996 2.66675C4.73634 2.66675 5.33329 3.2637 5.33329 4.00008Z" fill="#414141"/>
<path d="M5.33329 8.00008C5.33329 8.73648 4.73634 9.33341 3.99996 9.33341C3.26358 9.33341 2.66663 8.73648 2.66663 8.00008C2.66663 7.26368 3.26358 6.66675 3.99996 6.66675C4.73634 6.66675 5.33329 7.26368 5.33329 8.00008Z" fill="#414141"/>
<path d="M3.99996 13.3334C4.73634 13.3334 5.33329 12.7365 5.33329 12.0001C5.33329 11.2637 4.73634 10.6667 3.99996 10.6667C3.26358 10.6667 2.66663 11.2637 2.66663 12.0001C2.66663 12.7365 3.26358 13.3334 3.99996 13.3334Z" fill="#414141"/>
<path d="M9.33329 4.00008C9.33329 4.73646 8.73636 5.33341 7.99996 5.33341C7.26356 5.33341 6.66663 4.73646 6.66663 4.00008C6.66663 3.2637 7.26356 2.66675 7.99996 2.66675C8.73636 2.66675 9.33329 3.2637 9.33329 4.00008Z" fill="#414141"/>
<path d="M7.99996 9.33341C8.73636 9.33341 9.33329 8.73648 9.33329 8.00008C9.33329 7.26368 8.73636 6.66675 7.99996 6.66675C7.26356 6.66675 6.66663 7.26368 6.66663 8.00008C6.66663 8.73648 7.26356 9.33341 7.99996 9.33341Z" fill="#414141"/>
<path d="M9.33329 12.0001C9.33329 12.7365 8.73636 13.3334 7.99996 13.3334C7.26356 13.3334 6.66663 12.7365 6.66663 12.0001C6.66663 11.2637 7.26356 10.6667 7.99996 10.6667C8.73636 10.6667 9.33329 11.2637 9.33329 12.0001Z" fill="#414141"/>
<path d="M12 5.33341C12.7364 5.33341 13.3333 4.73646 13.3333 4.00008C13.3333 3.2637 12.7364 2.66675 12 2.66675C11.2636 2.66675 10.6666 3.2637 10.6666 4.00008C10.6666 4.73646 11.2636 5.33341 12 5.33341Z" fill="#414141"/>
<path d="M13.3333 8.00008C13.3333 8.73648 12.7364 9.33341 12 9.33341C11.2636 9.33341 10.6666 8.73648 10.6666 8.00008C10.6666 7.26368 11.2636 6.66675 12 6.66675C12.7364 6.66675 13.3333 7.26368 13.3333 8.00008Z" fill="#414141"/>
<path d="M12 13.3334C12.7364 13.3334 13.3333 12.7365 13.3333 12.0001C13.3333 11.2637 12.7364 10.6667 12 10.6667C11.2636 10.6667 10.6666 11.2637 10.6666 12.0001C10.6666 12.7365 11.2636 13.3334 12 13.3334Z" fill="#414141"/>
</svg>
