<svg width="9" height="9" viewBox="0 0 9 9" fill="none" xmlns="http://www.w3.org/2000/svg">
<g clip-path="url(#clip0_617_49)">
<path d="M4.875 2.8125C4.875 2.91196 4.83549 3.00734 4.76516 3.07766C4.69484 3.14799 4.59946 3.1875 4.5 3.1875C4.40054 3.1875 4.30516 3.14799 4.23484 3.07766C4.16451 3.00734 4.125 2.91196 4.125 2.8125C4.125 2.71304 4.16451 2.61766 4.23484 2.54734C4.30516 2.47701 4.40054 2.4375 4.5 2.4375C4.59946 2.4375 4.69484 2.47701 4.76516 2.54734C4.83549 2.61766 4.875 2.71304 4.875 2.8125ZM3.75 4.21875C3.75 4.14416 3.77963 4.07262 3.83238 4.01988C3.88512 3.96713 3.95666 3.9375 4.03125 3.9375H4.59375C4.66834 3.9375 4.73988 3.96713 4.79262 4.01988C4.84537 4.07262 4.875 4.14416 4.875 4.21875V5.8125H5.15625C5.23084 5.8125 5.30238 5.84213 5.35512 5.89488C5.40787 5.94762 5.4375 6.01916 5.4375 6.09375C5.4375 6.16834 5.40787 6.23988 5.35512 6.29262C5.30238 6.34537 5.23084 6.375 5.15625 6.375H4.03125C3.95666 6.375 3.88512 6.34537 3.83238 6.29262C3.77963 6.23988 3.75 6.16834 3.75 6.09375C3.75 6.01916 3.77963 5.94762 3.83238 5.89488C3.88512 5.84213 3.95666 5.8125 4.03125 5.8125H4.3125V4.5H4.03125C3.95666 4.5 3.88512 4.47037 3.83238 4.41762C3.77963 4.36488 3.75 4.29334 3.75 4.21875Z" fill="currentColor"/>
<path d="M4.5 0.375C6.77812 0.375 8.625 2.22188 8.625 4.5C8.625 6.77812 6.77812 8.625 4.5 8.625C2.22188 8.625 0.375 6.77812 0.375 4.5C0.375 2.22188 2.22188 0.375 4.5 0.375ZM0.9375 4.5C0.9375 5.44483 1.31283 6.35097 1.98093 7.01907C2.64903 7.68717 3.55517 8.0625 4.5 8.0625C5.44483 8.0625 6.35097 7.68717 7.01907 7.01907C7.68717 6.35097 8.0625 5.44483 8.0625 4.5C8.0625 3.55517 7.68717 2.64903 7.01907 1.98093C6.35097 1.31283 5.44483 0.9375 4.5 0.9375C3.55517 0.9375 2.64903 1.31283 1.98093 1.98093C1.31283 2.64903 0.9375 3.55517 0.9375 4.5Z" fill="#414141"/>
</g>
<defs>
<clipPath id="clip0_617_49">
<rect width="9" height="9" fill="currentColor"/>
</clipPath>
</defs>
</svg>
