<svg width="17" height="17" viewBox="0 0 17 17" fill="none" xmlns="http://www.w3.org/2000/svg">
<path d="M9.91669 3.125V5.95833C9.91669 6.1462 9.99131 6.32636 10.1242 6.4592C10.257 6.59204 10.4372 6.66667 10.625 6.66667H13.4584" stroke="currentColor" stroke-linecap="round" stroke-linejoin="round"/>
<path d="M3.54169 9.20833V3.54167C3.54169 3.16594 3.69094 2.80561 3.95662 2.53993C4.2223 2.27426 4.58263 2.125 4.95835 2.125H9.91669L13.4584 5.66667V13.4583C13.4584 13.8341 13.3091 14.1944 13.0434 14.4601C12.7777 14.7257 12.4174 14.875 12.0417 14.875H8.14585M1.41669 13.4583H6.37502M6.37502 13.4583L4.25002 11.3333M6.37502 13.4583L4.25002 15.5833" stroke="currentColor" stroke-linecap="round" stroke-linejoin="round"/>
</svg>
