<svg width="16" height="16" viewBox="0 0 16 16" fill="currentColor" xmlns="http://www.w3.org/2000/svg">
<g id="react-icons/PiDotsThree">
<path id="Vector" d="M8 8.75C7.85166 8.75 7.70666 8.70601 7.58332 8.6236C7.45999 8.54119 7.36386 8.42406 7.30709 8.28701C7.25032 8.14997 7.23547 7.99917 7.26441 7.85368C7.29335 7.7082 7.36478 7.57456 7.46967 7.46967C7.57456 7.36478 7.7082 7.29335 7.85368 7.26441C7.99917 7.23547 8.14997 7.25033 8.28701 7.30709C8.42406 7.36386 8.54119 7.45999 8.6236 7.58332C8.70601 7.70666 8.75 7.85166 8.75 8C8.75 8.19891 8.67098 8.38968 8.53033 8.53033C8.38968 8.67098 8.19891 8.75 8 8.75ZM8.75 12.25C8.75 12.1017 8.70601 11.9567 8.6236 11.8333C8.54119 11.71 8.42406 11.6139 8.28701 11.5571C8.14997 11.5003 7.99917 11.4855 7.85368 11.5144C7.7082 11.5434 7.57456 11.6148 7.46967 11.7197C7.36478 11.8246 7.29335 11.9582 7.26441 12.1037C7.23547 12.2492 7.25032 12.4 7.30709 12.537C7.36386 12.6741 7.45999 12.7912 7.58332 12.8736C7.70666 12.956 7.85166 13 8 13C8.19891 13 8.38968 12.921 8.53033 12.7803C8.67098 12.6397 8.75 12.4489 8.75 12.25ZM8.75 3.75C8.75 3.60166 8.70601 3.45666 8.6236 3.33332C8.54119 3.20999 8.42406 3.11386 8.28701 3.05709C8.14997 3.00032 7.99917 2.98547 7.85368 3.01441C7.7082 3.04335 7.57456 3.11478 7.46967 3.21967C7.36478 3.32456 7.29335 3.4582 7.26441 3.60368C7.23547 3.74917 7.25033 3.89997 7.30709 4.03701C7.36386 4.17406 7.45999 4.29119 7.58332 4.3736C7.70666 4.45601 7.85166 4.5 8 4.5C8.19891 4.5 8.38968 4.42098 8.53033 4.28033C8.67098 4.13968 8.75 3.94891 8.75 3.75Z" fill="currentColor"/>
</g>
</svg>
