<svg width="16" height="16" viewBox="0 0 16 16" fill="none" xmlns="http://www.w3.org/2000/svg">
<path d="M13 8C13 7.86739 13.0527 7.74021 13.1464 7.64645C13.2402 7.55268 13.3674 7.5 13.5 7.5C13.6326 7.5 13.7598 7.55268 13.8536 7.64645C13.9473 7.74021 14 7.86739 14 8V13.5C14 13.6326 13.9473 13.7598 13.8536 13.8536C13.7598 13.9473 13.6326 14 13.5 14H2.5C2.36739 14 2.24021 13.9473 2.14645 13.8536C2.05268 13.7598 2 13.6326 2 13.5V2.5C2 2.36739 2.05268 2.24021 2.14645 2.14645C2.24021 2.05268 2.36739 2 2.5 2H8C8.13261 2 8.25979 2.05268 8.35355 2.14645C8.44732 2.24021 8.5 2.36739 8.5 2.5C8.5 2.63261 8.44732 2.75979 8.35355 2.85355C8.25979 2.94732 8.13261 3 8 3H3V13H13V8Z" fill="black"/>
<path d="M7.34298 8.65976L8.16798 8.54176L13.236 3.47476C13.2837 3.42864 13.3218 3.37347 13.348 3.31246C13.3742 3.25146 13.388 3.18585 13.3886 3.11946C13.3892 3.05307 13.3765 2.98723 13.3514 2.92578C13.3263 2.86434 13.2891 2.80851 13.2422 2.76156C13.1952 2.71462 13.1394 2.67749 13.078 2.65235C13.0165 2.62721 12.9507 2.61456 12.8843 2.61514C12.8179 2.61571 12.7523 2.62951 12.6913 2.65571C12.6303 2.68192 12.5751 2.72001 12.529 2.76776L7.45998 7.83476L7.34198 8.65976H7.34298ZM13.943 2.05976C14.0824 2.19906 14.1929 2.36446 14.2684 2.54651C14.3438 2.72857 14.3827 2.9237 14.3827 3.12076C14.3827 3.31783 14.3438 3.51296 14.2684 3.69501C14.1929 3.87706 14.0824 4.04246 13.943 4.18176L8.75798 9.36676C8.68152 9.4435 8.58221 9.49334 8.47498 9.50876L6.82498 9.74476C6.74809 9.7558 6.66968 9.74878 6.59597 9.72424C6.52226 9.6997 6.45528 9.65832 6.40035 9.60339C6.34542 9.54846 6.30405 9.48149 6.27951 9.40778C6.25497 9.33407 6.24794 9.25566 6.25898 9.17876L6.49498 7.52876C6.51014 7.42166 6.55961 7.32236 6.63598 7.24576L11.822 2.06076C12.1033 1.77956 12.4847 1.62158 12.8825 1.62158C13.2802 1.62158 13.6617 1.77956 13.943 2.06076V2.05976Z" fill="black"/>
</svg>
