<svg width="19" height="18" viewBox="0 0 19 18" fill="none" xmlns="http://www.w3.org/2000/svg">
<path d="M11.75 6H11.7567" stroke="currentColor" stroke-linecap="round" stroke-linejoin="round"/>
<path d="M2.75 4.5C2.75 3.90326 2.98705 3.33097 3.40901 2.90901C3.83097 2.48705 4.40326 2.25 5 2.25H14C14.5967 2.25 15.169 2.48705 15.591 2.90901C16.0129 3.33097 16.25 3.90326 16.25 4.5V13.5C16.25 14.0967 16.0129 14.669 15.591 15.091C15.169 15.5129 14.5967 15.75 14 15.75H5C4.40326 15.75 3.83097 15.5129 3.40901 15.091C2.98705 14.669 2.75 14.0967 2.75 13.5V4.5Z" stroke="currentColor" stroke-linecap="round" stroke-linejoin="round"/>
<path d="M2.75 12.0001L6.5 8.25012C7.196 7.58037 8.054 7.58037 8.75 8.25012L12.5 12.0001" stroke="currentColor" stroke-linecap="round" stroke-linejoin="round"/>
<path d="M11 10.5001L11.75 9.75012C12.446 9.08037 13.304 9.08037 14 9.75012L16.25 12.0001" stroke="currentColor" stroke-linecap="round" stroke-linejoin="round"/>
</svg>
