<svg width="14" height="14" viewBox="0 0 14 14" fill="none" xmlns="http://www.w3.org/2000/svg">
<path d="M5.83337 6.99992C5.83337 7.30934 5.95629 7.60608 6.17508 7.82488C6.39388 8.04367 6.69062 8.16659 7.00004 8.16659C7.30946 8.16659 7.60621 8.04367 7.825 7.82488C8.04379 7.60608 8.16671 7.30934 8.16671 6.99992C8.16671 6.6905 8.04379 6.39375 7.825 6.17496C7.60621 5.95617 7.30946 5.83325 7.00004 5.83325C6.69062 5.83325 6.39388 5.95617 6.17508 6.17496C5.95629 6.39375 5.83337 6.6905 5.83337 6.99992Z" stroke="currentColor" stroke-linecap="round" stroke-linejoin="round"/>
<path d="M12.25 7C10.85 9.33333 9.1 10.5 7 10.5C4.9 10.5 3.15 9.33333 1.75 7C3.15 4.66667 4.9 3.5 7 3.5C9.1 3.5 10.85 4.66667 12.25 7Z" stroke="currentColor" stroke-linecap="round" stroke-linejoin="round"/>
</svg>
