<svg width="15" height="15" viewBox="0 0 15 15" fill="none" xmlns="http://www.w3.org/2000/svg">
<path d="M9.70893 1.15947L9.77943 1.22172L13.9044 5.34672C14.0309 5.47383 14.1076 5.64202 14.1207 5.82082C14.1338 5.99962 14.0824 6.1772 13.9759 6.32138C13.8693 6.46556 13.7146 6.56681 13.5399 6.60677C13.3651 6.64673 13.1818 6.62277 13.0232 6.53923L10.6442 8.91747L9.57618 11.7652C9.54805 11.8404 9.50804 11.9105 9.45768 11.973L9.40518 12.033L8.28018 13.158C8.15094 13.287 7.97907 13.3644 7.7968 13.3758C7.61453 13.3871 7.4344 13.3315 7.29018 13.2195L7.21893 13.1572L5.12418 11.0632L2.27943 13.9072C2.14446 14.0417 1.96336 14.1198 1.77289 14.1256C1.58243 14.1315 1.3969 14.0646 1.25397 13.9385C1.11105 13.8125 1.02145 13.6368 1.00338 13.4471C0.985312 13.2574 1.04012 13.068 1.15668 12.9172L1.21893 12.8467L4.06293 10.002L1.96893 7.90722C1.8398 7.77808 1.76223 7.60626 1.75076 7.42399C1.7393 7.24172 1.79474 7.06153 1.90668 6.91722L1.96893 6.84672L3.09393 5.72172C3.15052 5.66493 3.21585 5.61758 3.28743 5.58147L3.36093 5.54997L6.20793 4.48122L8.58618 2.10372C8.50508 1.9521 8.47855 1.77721 8.51102 1.60835C8.5435 1.4395 8.63301 1.28693 8.76457 1.1762C8.89612 1.06547 9.06173 1.00331 9.23365 1.00013C9.40558 0.996947 9.57337 1.05369 9.70893 1.15947Z" fill="currentColor" stroke="black"/>
</svg>
