<svg width="14" height="15" viewBox="0 0 14 15" fill="none" xmlns="http://www.w3.org/2000/svg">
<path d="M9.205 3.38674C9.16442 3.34447 9.11623 3.31094 9.06318 3.28807C9.01013 3.26519 8.95326 3.25342 8.89583 3.25342C8.83841 3.25342 8.78154 3.26519 8.72849 3.28807C8.67544 3.31094 8.62725 3.34447 8.58667 3.38674L4.94083 7.1784C4.9002 7.22061 4.86796 7.27073 4.84596 7.3259C4.82397 7.38107 4.81265 7.44021 4.81265 7.49994C4.81265 7.55966 4.82397 7.6188 4.84596 7.67397C4.86796 7.72915 4.9002 7.77927 4.94083 7.82147L8.58667 11.6131C8.62727 11.6554 8.67547 11.6889 8.72851 11.7117C8.78156 11.7346 8.83842 11.7463 8.89583 11.7463C8.95325 11.7463 9.01011 11.7346 9.06315 11.7117C9.1162 11.6889 9.1644 11.6554 9.205 11.6131C9.2456 11.5709 9.27781 11.5208 9.29978 11.4656C9.32175 11.4104 9.33306 11.3513 9.33306 11.2916C9.33306 11.2319 9.32175 11.1728 9.29978 11.1176C9.27781 11.0624 9.2456 11.0123 9.205 10.9701L5.86892 7.49994L9.205 4.0298C9.24564 3.9876 9.27788 3.93748 9.29987 3.88231C9.32187 3.82714 9.33319 3.768 9.33319 3.70827C9.33319 3.64854 9.32187 3.5894 9.29987 3.53423C9.27788 3.47906 9.24564 3.42894 9.205 3.38674Z" fill="currentColor"/>
</svg>
