<svg width="14" height="14" viewBox="0 0 14 14" fill="currentColor" xmlns="http://www.w3.org/2000/svg">
<path d="M3.63143 2.80659C3.40363 2.57879 3.03428 2.57879 2.80647 2.80659C2.57867 3.0344 2.57867 3.40375 2.80647 3.63156L6.17506 7.00013L2.80651 10.3687C2.5787 10.5965 2.5787 10.9659 2.80651 11.1937C3.03432 11.4214 3.40366 11.4214 3.63146 11.1937L7.00001 7.82508L10.3686 11.1937C10.5964 11.4214 10.9657 11.4214 11.1935 11.1937C11.4213 10.9659 11.4213 10.5965 11.1935 10.3687L7.82496 7.00013L11.1936 3.63156C11.4214 3.40375 11.4214 3.0344 11.1936 2.80659C10.9658 2.57879 10.5964 2.57879 10.3686 2.80659L7.00001 6.17518L3.63143 2.80659Z" fill="#898989"/>
</svg>
