<svg width="18" height="18" viewBox="0 0 18 18" fill="none" xmlns="http://www.w3.org/2000/svg">
<g clip-path="url(#clip0_134_57)">
<path d="M18 16.5938C18 17.3704 17.3704 18 16.5938 18H1.40625C0.629578 18 0 17.3704 0 16.5938V1.40625C0 0.629578 0.629578 0 1.40625 0H16.5938C17.3704 0 18 0.629578 18 1.40625V16.5938Z" fill="#FFE812"/>
<path d="M9 2.53125C4.96139 2.53125 1.6875 5.11263 1.6875 8.29688C1.6875 10.3556 3.0562 12.162 5.11509 13.182C5.00309 13.5683 4.3953 15.6671 4.37112 15.832C4.37112 15.832 4.35656 15.9559 4.43679 16.0031C4.51702 16.0504 4.61137 16.0137 4.61137 16.0137C4.84144 15.9815 7.27924 14.2691 7.70119 13.9718C8.12271 14.0315 8.55675 14.0625 9 14.0625C13.0386 14.0625 16.3125 11.4812 16.3125 8.29688C16.3125 5.11263 13.0386 2.53125 9 2.53125Z" fill="black"/>
<path d="M4.95703 10.3096C4.72437 10.3096 4.53516 10.1289 4.53516 9.90668V7.40039H3.87689C3.64859 7.40039 3.46289 7.21505 3.46289 6.9873C3.46289 6.75956 3.64866 6.57422 3.87689 6.57422H6.03717C6.26548 6.57422 6.45117 6.75956 6.45117 6.9873C6.45117 7.21505 6.26541 7.40039 6.03717 7.40039H5.37891V9.90668C5.37891 10.1289 5.1897 10.3096 4.95703 10.3096Z" fill="#FFE812"/>
<path d="M8.65618 10.3041C8.48025 10.3041 8.34568 10.2326 8.30511 10.1177L8.09621 9.57086L6.80977 9.57079L6.60073 10.118C6.5603 10.2327 6.42579 10.3041 6.24987 10.3041C6.15699 10.3041 6.06418 10.284 5.9817 10.2459C5.8654 10.1922 5.75361 10.0447 5.88171 9.6468L6.89084 6.99067C6.96193 6.78866 7.17786 6.58054 7.45264 6.57428C7.72819 6.58047 7.94412 6.78866 8.01535 6.99109L9.02405 9.64602C9.15244 10.0448 9.04064 10.1924 8.92435 10.2459C8.84173 10.284 8.74906 10.3041 8.65618 10.3041ZM7.87437 8.82358L7.45299 7.62651L7.03161 8.82358H7.87437Z" fill="#FFE812"/>
<path d="M9.70312 10.248C9.48016 10.248 9.29883 10.0745 9.29883 9.86133V6.99609C9.29883 6.76343 9.49205 6.57422 9.72949 6.57422C9.96694 6.57422 10.1602 6.76343 10.1602 6.99609V9.47461H11.0566C11.2796 9.47461 11.4609 9.64814 11.4609 9.86133C11.4609 10.0745 11.2796 10.248 11.0566 10.248H9.70312Z" fill="#FFE812"/>
<path d="M12.0469 10.3041C11.8142 10.3041 11.625 10.1149 11.625 9.88221V6.99609C11.625 6.76343 11.8142 6.57422 12.0469 6.57422C12.2795 6.57422 12.4688 6.76343 12.4688 6.99609V7.90284L13.6458 6.72581C13.7063 6.66527 13.7895 6.63195 13.8798 6.63195C13.9851 6.63195 14.0909 6.67737 14.1701 6.75654C14.244 6.83037 14.2881 6.92536 14.2941 7.02401C14.3002 7.1235 14.2671 7.2147 14.201 7.28086L13.2397 8.2421L14.2781 9.61784C14.346 9.70777 14.3748 9.81872 14.3591 9.93037C14.3435 10.042 14.2853 10.1407 14.1954 10.2086C14.1216 10.2644 14.0339 10.2937 13.9417 10.2937C13.8079 10.2937 13.6852 10.2327 13.6046 10.1261L12.6153 8.81515L12.4689 8.96154V9.882C12.4687 10.1148 12.2795 10.3041 12.0469 10.3041Z" fill="#FFE812"/>
</g>
<defs>
<clipPath id="clip0_134_57">
<rect width="18" height="18" fill="white"/>
</clipPath>
</defs>
</svg>
