<svg width="18" height="18" viewBox="0 0 18 18" fill="" xmlns="http://www.w3.org/2000/svg">
<g clip-path="url(#clip0_26_408)">
<path d="M9.26438 1.75399C9.18299 1.71065 9.0922 1.68799 9 1.68799C8.9078 1.68799 8.81701 1.71065 8.73563 1.75399L0.298126 6.25399C0.208269 6.302 0.133138 6.37351 0.0807553 6.46089C0.0283721 6.54827 0.000703476 6.64824 0.000703476 6.75011C0.000703476 6.85199 0.0283721 6.95196 0.0807553 7.03934C0.133138 7.12672 0.208269 7.19823 0.298126 7.24624L3.5865 9.00011L0.297001 10.754C0.207144 10.802 0.132013 10.8735 0.0796303 10.9609C0.0272472 11.0483 -0.000421524 11.1482 -0.000421524 11.2501C-0.000421524 11.352 0.0272472 11.452 0.0796303 11.5393C0.132013 11.6267 0.207144 11.6982 0.297001 11.7462L8.7345 16.2462C8.81588 16.2896 8.90667 16.3122 8.99888 16.3122C9.09108 16.3122 9.18187 16.2896 9.26325 16.2462L17.7008 11.7462C17.7906 11.6982 17.8657 11.6267 17.9181 11.5393C17.9705 11.452 17.9982 11.352 17.9982 11.2501C17.9982 11.1482 17.9705 11.0483 17.9181 10.9609C17.8657 10.8735 17.7906 10.802 17.7008 10.754L14.4146 9.00011L17.7019 7.24624C17.7917 7.19823 17.8669 7.12672 17.9192 7.03934C17.9716 6.95196 17.9993 6.85199 17.9993 6.75011C17.9993 6.64824 17.9716 6.54827 17.9192 6.46089C17.8669 6.37351 17.7917 6.302 17.7019 6.25399L9.26438 1.75399ZM13.2188 9.63799L16.2428 11.2501L9 15.1122L1.75725 11.2501L4.78125 9.63799L8.73563 11.7462C8.81701 11.7896 8.9078 11.8122 9 11.8122C9.0922 11.8122 9.18299 11.7896 9.26438 11.7462L13.2188 9.63799ZM9 10.6122L1.75725 6.75011L9 2.88799L16.2428 6.75011L9 10.6122Z" fill="currentColor"/>
</g>
<defs>
<clipPath id="clip0_26_408">
<rect width="18" height="18" fill="white"/>
</clipPath>
</defs>
</svg>
