<svg width="18" height="18" viewBox="0 0 18 18" fill="none" xmlns="http://www.w3.org/2000/svg">
<path d="M12.1816 8.4375H9.5625V5.81836C9.5625 5.50898 9.30938 5.25586 9 5.25586C8.69062 5.25586 8.4375 5.50898 8.4375 5.81836V8.4375H5.81836C5.50898 8.4375 5.25586 8.64844 5.25586 9C5.25586 9.35156 5.51953 9.5625 5.81836 9.5625H8.4375V12.1816C8.4375 12.5156 8.68359 12.7441 9 12.7441C9.31641 12.7441 9.5625 12.491 9.5625 12.1816V9.5625H12.1816C12.491 9.5625 12.7441 9.30938 12.7441 9C12.7441 8.69062 12.491 8.4375 12.1816 8.4375Z" fill="currentColor"/>
<path d="M9 2.67188C10.691 2.67188 12.2801 3.3293 13.4754 4.52461C14.6707 5.71992 15.3281 7.30898 15.3281 9C15.3281 10.691 14.6707 12.2801 13.4754 13.4754C12.2801 14.6707 10.691 15.3281 9 15.3281C7.30898 15.3281 5.71992 14.6707 4.52461 13.4754C3.3293 12.2801 2.67188 10.691 2.67188 9C2.67188 7.30898 3.3293 5.71992 4.52461 4.52461C5.71992 3.3293 7.30898 2.67188 9 2.67188ZM9 1.6875C4.96055 1.6875 1.6875 4.96055 1.6875 9C1.6875 13.0395 4.96055 16.3125 9 16.3125C13.0395 16.3125 16.3125 13.0395 16.3125 9C16.3125 4.96055 13.0395 1.6875 9 1.6875Z" fill="currentColor" stroke="currentColor" stroke-width="0.2"/>
</svg>
