<svg width="17" height="17" viewBox="0 0 17 17" fill="none" xmlns="http://www.w3.org/2000/svg">
<path d="M3.54163 4.54167C3.54163 4.16594 3.69088 3.80561 3.95656 3.53993C4.22223 3.27426 4.58257 3.125 4.95829 3.125H12.0416C12.4173 3.125 12.7777 3.27426 13.0434 3.53993C13.309 3.80561 13.4583 4.16594 13.4583 4.54167V14.4583C13.4583 14.8341 13.309 15.1944 13.0434 15.4601C12.7777 15.7257 12.4173 15.875 12.0416 15.875H4.95829C4.58257 15.875 4.22223 15.7257 3.95656 15.4601C3.69088 15.1944 3.54163 14.8341 3.54163 14.4583V4.54167Z" stroke="currentColor" stroke-linecap="round" stroke-linejoin="round"/>
<path d="M6.375 5.95831H10.625" stroke="currentColor" stroke-linecap="round" stroke-linejoin="round"/>
<path d="M6.375 8.79169H10.625" stroke="currentColor" stroke-linecap="round" stroke-linejoin="round"/>
<path d="M6.375 11.625H9.20833" stroke="currentColor" stroke-linecap="round" stroke-linejoin="round"/>
</svg>
