<svg width="17" height="18" viewBox="0 0 17 18" fill="none" xmlns="http://www.w3.org/2000/svg">
<path d="M10.625 6H10.6317" stroke="#414141" stroke-linecap="round" stroke-linejoin="round"/>
<path d="M2.125 4.5C2.125 3.90326 2.34888 3.33097 2.7474 2.90901C3.14591 2.48705 3.68641 2.25 4.25 2.25H12.75C13.3136 2.25 13.8541 2.48705 14.2526 2.90901C14.6511 3.33097 14.875 3.90326 14.875 4.5V13.5C14.875 14.0967 14.6511 14.669 14.2526 15.091C13.8541 15.5129 13.3136 15.75 12.75 15.75H4.25C3.68641 15.75 3.14591 15.5129 2.7474 15.091C2.34888 14.669 2.125 14.0967 2.125 13.5V4.5Z" stroke="#414141" stroke-linecap="round" stroke-linejoin="round"/>
<path d="M2.125 12.0001L5.66667 8.25012C6.324 7.58037 7.13433 7.58037 7.79167 8.25012L11.3333 12.0001" stroke="#414141" stroke-linecap="round" stroke-linejoin="round"/>
<path d="M9.91663 10.5001L10.625 9.75012C11.2823 9.08037 12.0926 9.08037 12.75 9.75012L14.875 12.0001" stroke="#414141" stroke-linecap="round" stroke-linejoin="round"/>
</svg>
