<svg width="15" height="15" viewBox="0 0 15 15" fill="none" xmlns="http://www.w3.org/2000/svg">
<path fill-rule="evenodd" clip-rule="evenodd" d="M6.5625 2.3438C6.00849 2.3438 5.4599 2.45292 4.94805 2.66494C4.43621 2.87695 3.97114 3.1877 3.57939 3.57945C3.18765 3.97119 2.8769 4.43626 2.66488 4.94811C2.45287 5.45995 2.34375 6.00854 2.34375 6.56255C2.34375 7.11657 2.45287 7.66516 2.66488 8.177C2.8769 8.68884 3.18765 9.15391 3.57939 9.54566C3.97114 9.93741 4.43621 10.2482 4.94805 10.4602C5.4599 10.6722 6.00849 10.7813 6.5625 10.7813C7.68138 10.7813 8.75444 10.3368 9.54561 9.54566C10.3368 8.75449 10.7812 7.68144 10.7812 6.56255C10.7812 5.44367 10.3368 4.37062 9.54561 3.57945C8.75444 2.78828 7.68138 2.3438 6.5625 2.3438ZM1.40625 6.56255C1.40636 5.73449 1.6059 4.91863 1.98799 4.18399C2.37009 3.44935 2.92349 2.81754 3.6014 2.342C4.2793 1.86647 5.06177 1.56119 5.8826 1.45201C6.70344 1.34282 7.53849 1.43293 8.31714 1.71471C9.09578 1.9965 9.79511 2.46167 10.356 3.07088C10.9168 3.68009 11.3227 4.41541 11.5393 5.21465C11.7558 6.01389 11.7767 6.85354 11.6002 7.66257C11.4236 8.47159 11.0549 9.2262 10.525 9.86255L13.4563 12.7938C13.5023 12.8367 13.5392 12.8885 13.5649 12.946C13.5905 13.0035 13.6043 13.0655 13.6054 13.1285C13.6065 13.1914 13.5949 13.2539 13.5713 13.3123C13.5478 13.3707 13.5127 13.4237 13.4681 13.4682C13.4236 13.5127 13.3706 13.5478 13.3122 13.5714C13.2539 13.595 13.1914 13.6065 13.1284 13.6054C13.0655 13.6043 13.0034 13.5905 12.9459 13.5649C12.8884 13.5393 12.8367 13.5024 12.7937 13.4563L9.8625 10.5251C9.10951 11.1522 8.19339 11.5519 7.22145 11.6771C6.24951 11.8023 5.26201 11.648 4.37463 11.2322C3.48725 10.8164 2.73674 10.1563 2.21102 9.32926C1.6853 8.50224 1.40614 7.54253 1.40625 6.56255ZM4.21875 6.56255C4.21875 6.43823 4.26814 6.319 4.35604 6.2311C4.44395 6.14319 4.56318 6.0938 4.6875 6.0938H8.4375C8.56182 6.0938 8.68105 6.14319 8.76896 6.2311C8.85686 6.319 8.90625 6.43823 8.90625 6.56255C8.90625 6.68687 8.85686 6.8061 8.76896 6.89401C8.68105 6.98192 8.56182 7.0313 8.4375 7.0313H4.6875C4.56318 7.0313 4.44395 6.98192 4.35604 6.89401C4.26814 6.8061 4.21875 6.68687 4.21875 6.56255Z" fill="#414141"/>
</svg>
