<svg width="14" height="14" viewBox="0 0 14 14" fill="none" xmlns="http://www.w3.org/2000/svg">
<path d="M9.33479 0.407522L9.40528 0.469772L13.5303 4.59477C13.6567 4.72188 13.7334 4.89007 13.7465 5.06887C13.7596 5.24767 13.7083 5.42525 13.6017 5.56943C13.4952 5.71361 13.3405 5.81485 13.1657 5.85482C12.991 5.89478 12.8077 5.87082 12.649 5.78727L10.27 8.16552L9.20204 11.0133C9.1739 11.0884 9.13389 11.1586 9.08354 11.221L9.03104 11.281L7.90604 12.406C7.7768 12.535 7.60492 12.6125 7.42265 12.6238C7.24039 12.6351 7.06025 12.5796 6.91604 12.4675L6.84479 12.4053L4.75004 10.3113L1.90529 13.1553C1.77032 13.2898 1.58921 13.3679 1.39875 13.3737C1.20829 13.3795 1.02275 13.3126 0.879826 13.1866C0.736902 13.0606 0.647306 12.8849 0.629236 12.6952C0.611166 12.5055 0.665977 12.316 0.782535 12.1653L0.844785 12.0948L3.68879 9.25002L1.59479 7.15527C1.46565 7.02613 1.38808 6.8543 1.37662 6.67203C1.36516 6.48976 1.4206 6.30957 1.53254 6.16527L1.59479 6.09477L2.71979 4.96977C2.77637 4.91298 2.8417 4.86563 2.91329 4.82952L2.98679 4.79802L5.83379 3.72927L8.21204 1.35177C8.13094 1.20015 8.1044 1.02526 8.13688 0.8564C8.16935 0.687542 8.25887 0.534972 8.39042 0.424244C8.52198 0.313516 8.68758 0.251356 8.85951 0.248175C9.03143 0.244994 9.19922 0.301736 9.33479 0.407522Z" fill="#65B08E"/>
</svg>
