<svg width="32" height="32" viewBox="0 0 32 32" fill="none" xmlns="http://www.w3.org/2000/svg">
<g filter="url(#filter0_d_330_37)">
<path d="M19.5149 1.26579L19.6324 1.36954L26.5074 8.24454C26.7181 8.45638 26.846 8.7367 26.8678 9.0347C26.8896 9.3327 26.804 9.62867 26.6264 9.86897C26.4489 10.1093 26.1911 10.278 25.8998 10.3446C25.6085 10.4112 25.303 10.3713 25.0386 10.232L21.0736 14.1958L19.2936 18.942C19.2467 19.0673 19.1801 19.1842 19.0961 19.2883L19.0086 19.3883L17.1336 21.2633C16.9182 21.4783 16.6318 21.6074 16.328 21.6263C16.0242 21.6451 15.724 21.5525 15.4836 21.3658L15.3649 21.262L11.8736 17.772L7.13238 22.512C6.90744 22.7362 6.60559 22.8664 6.28816 22.8761C5.97072 22.8858 5.66149 22.7743 5.42329 22.5642C5.18508 22.3542 5.03575 22.0613 5.00564 21.7452C4.97552 21.429 5.06687 21.1133 5.26113 20.862L5.36488 20.7445L10.1049 16.0033L6.61489 12.512C6.39966 12.2968 6.27038 12.0104 6.25127 11.7066C6.23217 11.4029 6.32457 11.1025 6.51114 10.862L6.61489 10.7445L8.48989 8.86954C8.5842 8.77489 8.69308 8.69597 8.81239 8.63579L8.93489 8.58329L13.6799 6.80204L17.6436 2.83954C17.5085 2.58683 17.4642 2.29535 17.5184 2.01392C17.5725 1.73249 17.7217 1.47821 17.9409 1.29366C18.1602 1.10911 18.4362 1.00551 18.7228 1.00021C19.0093 0.99491 19.289 1.08948 19.5149 1.26579Z" stroke="#414141" stroke-width="2" shape-rendering="crispEdges"/>
</g>
<defs>
<filter id="filter0_d_330_37" x="0" y="0" width="31.8711" height="31.8767" filterUnits="userSpaceOnUse" color-interpolation-filters="sRGB">
<feFlood flood-opacity="0" result="BackgroundImageFix"/>
<feColorMatrix in="SourceAlpha" type="matrix" values="0 0 0 0 0 0 0 0 0 0 0 0 0 0 0 0 0 0 127 0" result="hardAlpha"/>
<feOffset dy="4"/>
<feGaussianBlur stdDeviation="2"/>
<feComposite in2="hardAlpha" operator="out"/>
<feColorMatrix type="matrix" values="0 0 0 0 0 0 0 0 0 0 0 0 0 0 0 0 0 0 0.25 0"/>
<feBlend mode="normal" in2="BackgroundImageFix" result="effect1_dropShadow_330_37"/>
<feBlend mode="normal" in="SourceGraphic" in2="effect1_dropShadow_330_37" result="shape"/>
</filter>
</defs>
</svg>
