<svg width="27" height="27" viewBox="0 0 27 27" fill="none" xmlns="http://www.w3.org/2000/svg">
<rect width="27" height="27" rx="4" fill="white"/>
<path fill-rule="evenodd" clip-rule="evenodd" d="M13 8.50001C12.4091 8.50001 11.8239 8.6164 11.2779 8.84255C10.732 9.0687 10.2359 9.40016 9.81802 9.81803C9.40016 10.2359 9.06869 10.732 8.84254 11.2779C8.6164 11.8239 8.5 12.4091 8.5 13C8.5 13.591 8.6164 14.1761 8.84254 14.7221C9.06869 15.268 9.40016 15.7641 9.81802 16.182C10.2359 16.5999 10.732 16.9313 11.2779 17.1575C11.8239 17.3836 12.4091 17.5 13 17.5C14.1935 17.5 15.3381 17.0259 16.182 16.182C17.0259 15.3381 17.5 14.1935 17.5 13C17.5 11.8065 17.0259 10.6619 16.182 9.81803C15.3381 8.97411 14.1935 8.50001 13 8.50001ZM7.5 13C7.50012 12.1167 7.71296 11.2465 8.12053 10.4629C8.52809 9.67926 9.11839 9.00533 9.84149 8.49809C10.5646 7.99085 11.3992 7.66522 12.2748 7.54876C13.1503 7.43229 14.0411 7.52841 14.8716 7.82898C15.7022 8.12955 16.4481 8.62573 17.0464 9.27555C17.6446 9.92538 18.0775 10.7097 18.3086 11.5622C18.5396 12.4148 18.5619 13.3104 18.3735 14.1734C18.1852 15.0363 17.7918 15.8412 17.2267 16.52L20.3533 19.6467C20.4025 19.6924 20.4419 19.7476 20.4692 19.809C20.4965 19.8703 20.5112 19.9365 20.5124 20.0037C20.5136 20.0708 20.5012 20.1375 20.4761 20.1997C20.4509 20.262 20.4135 20.3186 20.366 20.366C20.3185 20.4135 20.262 20.4509 20.1997 20.4761C20.1375 20.5012 20.0708 20.5136 20.0037 20.5124C19.9365 20.5112 19.8703 20.4965 19.809 20.4692C19.7476 20.4419 19.6924 20.4025 19.6467 20.3533L16.52 17.2267C15.7168 17.8957 14.7396 18.3219 13.7029 18.4555C12.6661 18.5891 11.6128 18.4245 10.6663 17.9809C9.71973 17.5374 8.91919 16.8333 8.35842 15.9512C7.79765 15.069 7.49989 14.0453 7.5 13ZM13 10.5C13.1326 10.5 13.2598 10.5527 13.3536 10.6465C13.4473 10.7402 13.5 10.8674 13.5 11V12.5H15C15.1326 12.5 15.2598 12.5527 15.3536 12.6465C15.4473 12.7402 15.5 12.8674 15.5 13C15.5 13.1326 15.4473 13.2598 15.3536 13.3536C15.2598 13.4473 15.1326 13.5 15 13.5H13.5V15C13.5 15.1326 13.4473 15.2598 13.3536 15.3536C13.2598 15.4473 13.1326 15.5 13 15.5C12.8674 15.5 12.7402 15.4473 12.6464 15.3536C12.5527 15.2598 12.5 15.1326 12.5 15V13.5H11C10.8674 13.5 10.7402 13.4473 10.6464 13.3536C10.5527 13.2598 10.5 13.1326 10.5 13C10.5 12.8674 10.5527 12.7402 10.6464 12.6465C10.7402 12.5527 10.8674 12.5 11 12.5H12.5V11C12.5 10.8674 12.5527 10.7402 12.6464 10.6465C12.7402 10.5527 12.8674 10.5 13 10.5Z" fill="#414141"/>
</svg>
